<svg width="92" height="90" viewBox="0 0 92 90" fill="none" xmlns="http://www.w3.org/2000/svg">
<g clip-path="url(#clip0_60_1300)">
<path d="M56.2153 43.3154L47.1374 51.9804L8.80308 88.5663C7.79669 89.5291 6.50566 90.0105 5.21463 90.0105C3.80162 90.0105 2.38861 89.4369 1.36188 88.3C-0.661062 86.0672 -0.396757 82.5745 1.93116 80.6694L47.1374 43.8275L52.1185 39.7715L56.2153 43.3154Z" fill="url(#paint0_linear_60_1300)"/>
<path d="M46.7414 52.421L37.8058 60.9427L36.9824 52.1855L41.8721 48.2012L46.7414 52.421Z" fill="#00C342"/>
<path d="M91.9772 29.9078C91.9772 46.4288 78.6807 59.8259 62.2938 59.8259C51.9656 59.8259 42.8674 54.5101 37.5508 46.4391C34.43 41.7071 32.6104 36.0225 32.6104 29.9078C32.6104 13.3868 45.9069 0 62.2938 0C69.6943 0 76.4544 2.72448 81.649 7.23114C87.972 12.7211 91.9772 20.8433 91.9772 29.9078Z" fill="url(#paint1_linear_60_1300)"/>
<path d="M62.2946 53.2094C75.0671 53.2094 85.4213 42.777 85.4213 29.9079C85.4213 17.0389 75.0671 6.60645 62.2946 6.60645C49.5221 6.60645 39.168 17.0389 39.168 29.9079C39.168 42.777 49.5221 53.2094 62.2946 53.2094Z" fill="white"/>
<path opacity="0.06" d="M91.9772 29.9081C91.9772 46.4291 78.6806 59.8262 62.2938 59.8262C51.9655 59.8262 42.8674 54.5104 37.5508 46.4394C71.026 43.6944 79.8497 15.1181 81.6592 7.23145C87.972 12.7214 91.9772 20.8436 91.9772 29.9081Z" fill="#00C342"/>
<path d="M62.2944 29.9587C64.9782 29.9587 67.1536 27.7669 67.1536 25.0629C67.1536 22.3589 64.9782 20.167 62.2944 20.167C59.6107 20.167 57.4353 22.3589 57.4353 25.0629C57.4353 27.7669 59.6006 29.9587 62.2944 29.9587ZM62.2944 32.4067C59.0516 32.4067 52.5762 34.0455 52.5762 37.3025V38.5316C52.5762 39.2076 53.1251 39.7607 53.796 39.7607H70.8132C71.4841 39.7607 72.0331 39.2076 72.0331 38.5316V37.3025C72.0127 34.0557 65.5373 32.4067 62.2944 32.4067Z" fill="url(#paint2_linear_60_1300)"/>
</g>
<defs>
<linearGradient id="paint0_linear_60_1300" x1="5.67441" y1="84.3268" x2="53.9241" y2="40.7925" gradientUnits="userSpaceOnUse">
<stop stop-color="#00C342"/>
<stop offset="1" stop-color="#15B75A"/>
</linearGradient>
<linearGradient id="paint1_linear_60_1300" x1="50.0165" y1="2.11336" x2="72.781" y2="52.9053" gradientUnits="userSpaceOnUse">
<stop stop-color="#00C342"/>
<stop offset="1" stop-color="#00C341"/>
</linearGradient>
<linearGradient id="paint2_linear_60_1300" x1="55.2685" y1="28.3944" x2="72.9194" y2="36.9388" gradientUnits="userSpaceOnUse">
<stop stop-color="#00C342"/>
<stop offset="0.071077" stop-color="#00C341"/>
<stop offset="0.2937" stop-color="#15B75A"/>
<stop offset="0.5209" stop-color="#01C340"/>
<stop offset="0.7536" stop-color="#00C342"/>
<stop offset="1" stop-color="#00C341"/>
</linearGradient>
<clipPath id="clip0_60_1300">
<rect width="91.978" height="90" fill="white"/>
</clipPath>
</defs>
</svg>
