<svg width="68" height="95" viewBox="0 0 68 95" fill="none" xmlns="http://www.w3.org/2000/svg">
<g clip-path="url(#clip0_60_1312)">
<path d="M64.9697 0H2.32971C1.04143 0 0 1.02822 0 2.30017V92.7074C0 93.9794 1.04143 95.0076 2.32971 95.0076H64.9697C66.258 95.0076 67.2994 93.9794 67.2994 92.7074V2.30017C67.2917 1.02822 66.2502 0 64.9697 0Z" fill="url(#paint0_linear_60_1312)"/>
<path d="M60.8583 4.09766H6.43401C5.1843 4.09766 4.16602 5.10303 4.16602 6.34451V81.0923C4.16602 82.3338 5.1843 83.3316 6.43401 83.3316H60.8583C62.1157 83.3316 63.1263 82.3262 63.1263 81.0923V6.34451C63.1263 5.10303 62.1157 4.09766 60.8583 4.09766Z" fill="white"/>
<path d="M44.7733 39.6356H22.5254C21.5071 39.6356 20.6816 38.8206 20.6816 37.8153V15.8418C20.6816 14.8364 21.5071 14.0215 22.5254 14.0215H44.7733C45.7916 14.0215 46.617 14.8364 46.617 15.8418V37.8077C46.617 38.813 45.7916 39.6356 44.7733 39.6356Z" fill="url(#paint1_linear_60_1312)"/>
<path d="M33.6498 92.5476C35.5414 92.5476 37.0749 91.0335 37.0749 89.1659C37.0749 87.2982 35.5414 85.7842 33.6498 85.7842C31.7581 85.7842 30.2246 87.2982 30.2246 89.1659C30.2246 91.0335 31.7581 92.5476 33.6498 92.5476Z" fill="white"/>
<path d="M53.0353 51.0149H14.2556C13.2759 51.0149 12.4736 50.2228 12.4736 49.2555C12.4736 48.2882 13.2759 47.4961 14.2556 47.4961H53.0276C54.0073 47.4961 54.8096 48.2882 54.8096 49.2555C54.8096 50.2228 54.015 51.0149 53.0353 51.0149Z" fill="url(#paint2_linear_60_1312)"/>
<path opacity="0.6" d="M46.4706 60.7639H13.6077C12.9829 60.7639 12.4814 60.2612 12.4814 59.6518V59.53C12.4814 58.913 12.9906 58.418 13.6077 58.418H46.4706C47.0954 58.418 47.5969 58.9207 47.5969 59.53V59.6518C47.6046 60.2612 47.0954 60.7639 46.4706 60.7639Z" fill="url(#paint3_linear_60_1312)"/>
<path opacity="0.3" d="M40.2142 66.9558H13.4996C12.9365 66.9558 12.4736 66.4988 12.4736 65.9428V65.6077C12.4736 65.0517 12.9365 64.5947 13.4996 64.5947H40.2065C40.7696 64.5947 41.2325 65.0517 41.2325 65.6077V65.9428C41.2325 66.4988 40.7696 66.9558 40.2142 66.9558Z" fill="url(#paint4_linear_60_1312)"/>
<path opacity="0.6" d="M43.5777 72.6916H13.5614C12.9674 72.6916 12.4814 72.2117 12.4814 71.6253V71.412C12.4814 70.8255 12.9674 70.3457 13.5614 70.3457H43.5777C44.1717 70.3457 44.6577 70.8255 44.6577 71.412V71.6253C44.6577 72.2041 44.1717 72.6916 43.5777 72.6916Z" fill="url(#paint5_linear_60_1312)"/>
<path d="M33.717 26.1206C35.9445 26.1206 37.7502 24.3139 37.7502 22.0852C37.7502 19.8564 35.9445 18.0498 33.717 18.0498C31.4894 18.0498 29.6837 19.8564 29.6837 22.0852C29.6837 24.3139 31.4809 26.1206 33.717 26.1206ZM33.717 28.1383C31.0253 28.1383 25.6504 29.489 25.6504 32.1737V33.1867C25.6504 33.7439 26.106 34.1998 26.6629 34.1998H40.7879C41.3447 34.1998 41.8004 33.7439 41.8004 33.1867V32.1737C41.7835 29.4975 36.4086 28.1383 33.717 28.1383Z" fill="white"/>
</g>
<defs>
<linearGradient id="paint0_linear_60_1312" x1="4.07698" y1="45.0301" x2="67.3445" y2="50.4539" gradientUnits="userSpaceOnUse">
<stop stop-color="#6CBCFC"/>
<stop offset="1" stop-color="#458DFC"/>
</linearGradient>
<linearGradient id="paint1_linear_60_1312" x1="18.6704" y1="19.292" x2="48.4651" y2="34.6681" gradientUnits="userSpaceOnUse">
<stop stop-color="#B0F4FF"/>
<stop offset="0.0856277" stop-color="#A3F0FE"/>
<stop offset="0.2972" stop-color="#8AE7FD"/>
<stop offset="0.5161" stop-color="#77E1FD"/>
<stop offset="0.7451" stop-color="#6DDDFC"/>
<stop offset="1" stop-color="#69DCFC"/>
</linearGradient>
<linearGradient id="paint2_linear_60_1312" x1="54.8134" y1="49.2569" x2="12.4809" y2="49.2569" gradientUnits="userSpaceOnUse">
<stop stop-color="#6CBCFC"/>
<stop offset="1" stop-color="#458DFC"/>
</linearGradient>
<linearGradient id="paint3_linear_60_1312" x1="47.6024" y1="59.5875" x2="12.481" y2="59.5875" gradientUnits="userSpaceOnUse">
<stop stop-color="#6CBCFC"/>
<stop offset="1" stop-color="#458DFC"/>
</linearGradient>
<linearGradient id="paint4_linear_60_1312" x1="41.2333" y1="65.7795" x2="12.4809" y2="65.7795" gradientUnits="userSpaceOnUse">
<stop stop-color="#6CBCFC"/>
<stop offset="1" stop-color="#458DFC"/>
</linearGradient>
<linearGradient id="paint5_linear_60_1312" x1="44.6571" y1="71.5125" x2="12.481" y2="71.5125" gradientUnits="userSpaceOnUse">
<stop stop-color="#6CBCFC"/>
<stop offset="1" stop-color="#458DFC"/>
</linearGradient>
<clipPath id="clip0_60_1312">
<rect width="67.2917" height="95" fill="white"/>
</clipPath>
</defs>
</svg>
